<svg width="28" height="28" viewBox="0 0 28 28" fill="none" xmlns="http://www.w3.org/2000/svg">
<g clip-path="url(#clip0)">
<path d="M3.14195 15.2025L14.0722 4.42866L25.0025 15.2043C25.6878 15.8843 26.8007 15.8843 27.486 15.2043C28.1712 14.5243 28.1712 13.4234 27.486 12.7451L15.3139 0.746967C14.6548 0.0948496 13.4912 0.0913801 12.8287 0.746967L0.656653 12.7469C-0.0285692 13.4252 -0.0285692 14.5277 0.656653 15.206C1.34375 15.8824 2.45673 15.8824 3.14195 15.2025Z" fill="#0F8ED6"/>
<path d="M15.314 12.9191C14.655 12.267 13.4914 12.2635 12.8289 12.9191L0.656775 24.9173C-0.0284481 25.5973 -0.0284481 26.6981 0.656775 27.3764C1.342 28.0564 2.45498 28.0564 3.1402 27.3764L14.0722 16.6025L25.0027 27.3764C25.6879 28.0564 26.8009 28.0564 27.4861 27.3764C28.1713 26.6964 28.1713 25.5955 27.4861 24.9173L15.314 12.9191Z" fill="#0F8ED6"/>
</g>
<defs>
<clipPath id="clip0">
<rect width="27.8571" height="27.8571" fill="white" transform="translate(28 28) rotate(-180)"/>
</clipPath>
</defs>
</svg>
