<svg width="16" height="17" viewBox="0 0 16 17" fill="none" xmlns="http://www.w3.org/2000/svg">
<path d="M16 15.5C16 16.0523 15.5523 16.5 15 16.5H1C0.447719 16.5 0 16.0523 0 15.5C0 14.9477 0.447719 14.5 1 14.5H15C15.5523 14.5 16 14.9477 16 15.5ZM7.29291 12.3321C7.48819 12.5274 7.74406 12.625 8 12.625C8.25587 12.625 8.51188 12.5274 8.70709 12.3321L12.2502 8.78909C12.6407 8.39856 12.6407 7.76541 12.2502 7.37488C11.8596 6.98434 11.2265 6.98434 10.8359 7.37488L9 9.21081V1.5C9 0.947719 8.55228 0.5 8 0.5C7.44772 0.5 7 0.947719 7 1.5V9.21081L5.16406 7.37488C4.77353 6.98434 4.14038 6.98434 3.74984 7.37488C3.35931 7.76541 3.35931 8.39856 3.74984 8.78909L7.29291 12.3321Z" fill="#F5F5F5"/>
</svg>
