<!-- Generated by IcoMoon.io -->
<svg version="1.1" xmlns="http://www.w3.org/2000/svg" width="1024" height="1024" viewBox="0 0 1024 1024">
<title>medal</title>
<path d="M608 32h-160v459.955c25.294-7.772 52.158-11.955 80-11.955s54.706 4.183 80 11.955v-459.955zM640 32h128v416l-39.914 119.743c-24.627-26.729-54.542-48.512-88.086-63.688v-472.056zM416 32h-128v416l39.914 119.743c24.627-26.729 54.542-48.512 88.086-63.688v-472.056zM528 992c132.548 0 240-107.452 240-240s-107.452-240-240-240c-132.548 0-240 107.452-240 240s107.452 240 240 240v0zM528 829.538l-88.615 66.462 24.615-110.769-80-81.231h112l32-96 32 96h112l-80 81.231 32 110.769-96-66.462z"></path>
</svg>
