<svg width="23" height="16" viewBox="0 0 23 16" fill="none" xmlns="http://www.w3.org/2000/svg">
<path d="M19.3532 1.00518C22.7601 2.04045 22.2638 5.22254 22.128 8.41732C22.0559 10.1144 22.3104 12.7577 21.5679 14.336C21.0928 15.3415 20.1382 15.3797 19.158 15.4222C14.3425 15.647 9.44626 15.8465 4.63498 15.6258C1.91109 15.4985 0.0740035 14.6797 0.40919 12.011C0.192767 9.43982 0.383734 6.72019 0.651068 4.19579C0.791122 2.8805 1.0753 1.56104 2.48399 1.12829C3.47678 0.818562 4.74967 1.13681 5.78485 1.09432C7.12134 1.04341 8.44505 0.856699 9.78579 0.839759C12.8661 0.797364 15.9463 0.860957 19.0266 0.877989C19.1707 0.877897 19.2726 0.933067 19.3532 1.00518ZM14.6692 7.67909C13.4728 7.0215 12.2678 6.37658 11.0458 5.7698C10.2651 5.37944 9.48023 4.99335 8.68258 4.62854C8.64861 4.6116 8.52133 4.56911 8.38136 4.5182C8.72507 6.8135 8.42376 9.34225 8.32619 11.6927C10.5027 10.4454 12.5986 9.08769 14.6692 7.67909Z" fill="#F5F5F5"/>
</svg>
